<svg id="Layer_1" data-name="Layer 1" xmlns="http://www.w3.org/2000/svg" xmlns:xlink="http://www.w3.org/1999/xlink" viewBox="0 0 40.41 28.13"><defs><style>.cls-1{fill:none;}.cls-2{clip-path:url(#clip-path);}.cls-3{fill:#d19b2a;}.cls-4{clip-path:url(#clip-path-2);}</style><clipPath id="clip-path" transform="translate(-1029 -587)"><rect class="cls-1" x="1035.3" y="605.67" width="27.86" height="9.46"/></clipPath><clipPath id="clip-path-2" transform="translate(-1029 -587)"><rect class="cls-1" x="1029" y="587" width="40.41" height="21.47"/></clipPath></defs><g class="cls-2"><path class="cls-3" d="M1049.2,614.45c-6.68,0-12.09-1.4-12.09-3.14s5.41-3.13,12.09-3.13,12.08,1.4,12.08,3.13S1055.87,614.45,1049.2,614.45Zm0-8.71c-7.63,0-13.81,2.1-13.81,4.7s6.18,4.69,13.81,4.69S1063,613,1063,610.44s-6.18-4.7-13.81-4.7" transform="translate(-1029 -587)"/></g><g class="cls-4"><path class="cls-3" d="M1067.34,595.76a1.12,1.12,0,1,0-1.36,1.15c-.48.45-1,1-1.62,1.67-2.8,3.14-5.94,1.69-6.31-3.2h.08a1.28,1.28,0,1,0-.57-.14c-1,1.63-3.28,4.89-5.77,3.14-.87-.6-1.28-2.3-1.42-3.77a1.4,1.4,0,0,0,.47.08,1.5,1.5,0,0,0,0-3,1.68,1.68,0,0,0-.4,0l.39-2.28L1049.2,587l-1.64,2.47.4,2.28a1.75,1.75,0,0,0-.4,0,1.5,1.5,0,1,0,.47,2.91c-.15,1.47-.56,3.17-1.42,3.77-2.49,1.75-4.82-1.51-5.77-3.14a1.3,1.3,0,0,0,.7-1.15,1.28,1.28,0,1,0-1.28,1.29h.08c-.36,4.89-3.5,6.34-6.3,3.2-.6-.67-1.14-1.22-1.62-1.67a1.13,1.13,0,1,0-1.36-1.15c-1.49-1.08-2.06-.86-2.06-.86,4.31,4.09,5.74,10,6.21,13.43,2.19-2.42,8.11-3.67,14-3.67s11.8,1.25,14,3.67c.47-3.43,1.89-9.34,6.21-13.43,0,0-.58-.22-2.06.86" transform="translate(-1029 -587)"/></g></svg>