<svg xmlns="http://www.w3.org/2000/svg" xmlns:xlink="http://www.w3.org/1999/xlink" width="375" viewBox="0 0 375 375" height="375" version="1.0"><defs><clipPath id="c"><path d="M0 0H245V375H0z"/></clipPath><filter x="0%" y="0%" width="100%" xlink:type="simple" xlink:actuate="onLoad" height="100%" id="a" xlink:show="other"><feColorMatrix values="0 0 0 0 1 0 0 0 0 1 0 0 0 0 1 0 0 0 1 0" color-interpolation-filters="sRGB"/></filter><mask id="b"><g filter="url(#a)"><path fill-opacity=".247" d="M-37.5 -37.5H412.5V412.5H-37.5z"/></g></mask></defs><g mask="url(#b)"><g><g clip-path="url(#c)" transform="translate(66)"><path fill="#C89A40" d="M 80.539062 215.160156 C 77.292969 211.039062 73.796875 207.355469 70.175781 204.109375 C 65.304688 199.738281 60.25 196.179688 55.316406 193.492188 C 58.5 186.0625 62.183594 178.945312 65.242188 173.328125 C 65.929688 172.078125 67.179688 171.328125 68.617188 171.328125 C 70.050781 171.328125 71.300781 172.015625 72.050781 173.265625 C 72.238281 173.578125 72.425781 173.886719 72.613281 174.199219 C 75.859375 179.445312 79.855469 184.191406 82.976562 186.9375 L 83.789062 187.625 L 84.847656 187.625 C 87.597656 187.625 90.59375 187.1875 93.527344 186.5625 C 86.847656 194.992188 82.914062 205.605469 80.539062 215.222656 Z M 101.144531 178.882812 C 100.144531 179.132812 99.898438 179.195312 99.648438 179.257812 C 95.527344 180.382812 90.28125 181.753906 85.847656 182.003906 C 83.226562 179.507812 79.980469 175.636719 77.355469 171.265625 C 75.671875 168.457031 74.171875 165.523438 73.234375 162.773438 C 80.480469 162.710938 85.472656 166.769531 90.65625 170.953125 C 94.027344 173.703125 97.460938 176.449219 101.644531 178.507812 C 101.519531 178.632812 101.332031 178.757812 101.207031 178.882812 Z M 32.027344 126.996094 C 32.027344 126.996094 36.335938 124.4375 39.957031 122.753906 C 40.769531 124.375 41.703125 126.0625 42.828125 127.683594 C 31.714844 132.242188 25.285156 138.300781 20.726562 143.730469 C 21.851562 137.238281 24.660156 132.679688 27.65625 127.808594 L 31.652344 121.253906 L 25.285156 122.691406 C 24.660156 122.816406 23.972656 123.003906 23.160156 123.3125 C 25.097656 120.066406 27.03125 117.070312 29.03125 114.386719 C 31.339844 111.265625 33.710938 108.515625 36.148438 106.082031 C 36.148438 106.832031 36.210938 107.578125 36.273438 108.328125 C 36.460938 111.449219 37.085938 114.824219 38.207031 118.257812 C 34.835938 121.441406 33.960938 123.25 32.027344 126.996094 Z M 62.121094 114.199219 C 59.5625 113.511719 55.628906 112.574219 53.441406 112.449219 C 57.75 110.265625 57.75 110.265625 57.75 110.265625 C 57.75 110.265625 50.382812 104.019531 47.261719 104.269531 C 48.136719 106.394531 48.449219 108.390625 47.324219 109.890625 C 44.703125 113.324219 46.636719 120.316406 47.761719 125 C 43.703125 119.253906 42.203125 113.261719 41.828125 107.953125 C 41.453125 102.960938 42.140625 98.527344 42.765625 95.46875 C 54.816406 93.84375 68.554688 103.273438 73.671875 107.207031 C 70.113281 109.140625 66.242188 111.449219 62.183594 114.136719 Z M 105.578125 343.59375 L 97.835938 351.335938 L 105.578125 359.078125 L 113.320312 351.335938 Z M 121.5 342.65625 C 121.9375 342.65625 122.375 342.53125 122.75 342.34375 C 123.25 342.03125 123.621094 341.597656 123.871094 341.035156 C 124.683594 338.910156 125.621094 337.039062 126.746094 335.226562 C 127.867188 333.480469 129.054688 331.855469 130.367188 330.105469 C 131.613281 328.484375 132.738281 326.921875 133.738281 325.425781 C 134.738281 323.925781 135.609375 322.425781 136.359375 320.929688 L 137.484375 318.679688 L 138.734375 320.867188 C 139.417969 322.054688 140.167969 323.113281 141.105469 323.988281 C 141.980469 324.863281 143.039062 325.550781 144.289062 326.050781 L 148.097656 327.421875 C 148.535156 327.546875 148.910156 327.609375 149.347656 327.546875 C 149.722656 327.484375 150.097656 327.359375 150.472656 327.046875 C 150.84375 326.796875 151.09375 326.484375 151.28125 326.113281 C 151.46875 325.738281 151.53125 325.363281 151.53125 324.925781 L 151.34375 320.867188 C 151.03125 313.3125 155.214844 306.878906 159.085938 300.949219 L 162.769531 295.328125 L 161.710938 301.761719 L 161.585938 302.386719 L 160.148438 309.878906 C 160.023438 310.378906 160.085938 310.9375 160.273438 311.375 C 160.460938 311.8125 160.773438 312.1875 161.273438 312.5 C 161.710938 312.8125 162.210938 312.9375 162.707031 312.9375 C 163.207031 312.9375 163.707031 312.75 164.144531 312.4375 L 169.765625 308.378906 C 177.570312 302.699219 183.625 296.203125 187.746094 288.835938 C 191.804688 281.65625 194.050781 273.664062 194.363281 264.859375 L 194.425781 262.425781 L 196.488281 263.734375 C 197.859375 264.609375 199.359375 265.421875 200.859375 266.046875 C 202.417969 266.671875 204.042969 267.234375 205.726562 267.605469 L 212.410156 269.105469 C 212.910156 269.230469 213.46875 269.167969 213.90625 268.980469 C 214.34375 268.792969 214.78125 268.480469 215.09375 268.042969 C 215.40625 267.605469 215.53125 267.109375 215.53125 266.609375 C 215.53125 266.109375 215.40625 265.609375 215.09375 265.171875 L 211.285156 259.492188 C 210.535156 258.429688 209.910156 257.179688 209.351562 255.867188 C 208.726562 254.433594 208.164062 252.871094 207.726562 251.5 C 207.289062 250 206.914062 248.5 206.601562 246.941406 C 206.351562 245.503906 206.164062 244.007812 206.101562 242.507812 C 206.101562 241.695312 206.101562 240.882812 206.101562 240.136719 C 206.164062 239.324219 206.226562 238.511719 206.289062 237.761719 L 206.851562 232.828125 L 210.472656 240.882812 C 210.660156 241.320312 210.972656 241.695312 211.347656 241.945312 C 211.722656 242.195312 212.160156 242.320312 212.660156 242.382812 C 213.160156 242.382812 213.59375 242.257812 214.03125 242.070312 C 214.40625 241.820312 214.78125 241.507812 214.96875 241.070312 L 217.589844 236.203125 C 220.277344 231.207031 222.460938 225.960938 223.898438 220.53125 C 225.332031 215.285156 226.082031 209.851562 226.144531 204.359375 C 226.144531 203.546875 226.144531 202.671875 226.144531 201.734375 C 226.144531 200.925781 226.082031 200.050781 226.019531 199.113281 L 225.644531 193.992188 L 232.140625 203.671875 C 232.453125 204.171875 232.949219 204.484375 233.449219 204.671875 C 233.949219 204.859375 234.574219 204.859375 235.136719 204.609375 C 235.699219 204.421875 236.136719 204.046875 236.449219 203.546875 C 236.757812 203.109375 236.882812 202.546875 236.820312 201.921875 L 235.636719 190.871094 C 235.136719 186.1875 234.261719 181.632812 233.011719 177.199219 C 231.765625 172.640625 230.140625 168.207031 228.144531 163.835938 L 227.582031 162.585938 L 228.769531 162.027344 C 229.203125 161.839844 229.515625 161.527344 229.765625 161.152344 C 230.015625 160.777344 230.140625 160.339844 230.140625 159.839844 L 230.453125 152.410156 C 230.515625 151.160156 230.515625 149.976562 230.515625 148.789062 C 230.515625 147.601562 230.390625 146.417969 230.328125 145.292969 L 229.953125 141.671875 L 234.574219 145.917969 C 235.011719 146.355469 235.574219 146.539062 236.136719 146.601562 C 236.699219 146.601562 237.320312 146.480469 237.757812 146.105469 C 238.257812 145.730469 238.570312 145.230469 238.695312 144.667969 C 238.820312 144.105469 238.757812 143.480469 238.507812 142.980469 L 232.015625 129.746094 C 230.328125 126.25 228.457031 122.753906 226.457031 119.378906 C 224.460938 116.007812 222.335938 112.761719 220.027344 109.640625 C 218.339844 107.394531 216.53125 105.207031 214.65625 103.085938 C 212.785156 101.023438 210.785156 99.027344 208.664062 97.152344 L 208.289062 96.839844 L 208.226562 96.339844 C 208.101562 95.65625 207.976562 94.90625 207.789062 94.15625 C 207.601562 93.28125 207.476562 92.59375 207.351562 91.96875 L 206.976562 90.285156 C 206.851562 89.785156 206.601562 89.347656 206.289062 89.035156 C 205.976562 88.722656 205.539062 88.472656 205.042969 88.347656 L 203.917969 88.097656 L 203.667969 87.414062 C 203.605469 87.226562 203.480469 86.976562 203.355469 86.789062 C 203.230469 86.601562 203.042969 86.414062 202.855469 86.289062 L 196.300781 81.355469 C 192.992188 78.859375 189.558594 76.359375 185.875 74.238281 C 182.3125 72.179688 178.503906 70.429688 174.507812 69.492188 L 171.261719 68.679688 L 174.820312 66.558594 C 175.320312 66.246094 175.695312 65.808594 175.882812 65.308594 C 176.070312 64.808594 176.132812 64.25 175.945312 63.6875 C 175.757812 63.125 175.445312 62.6875 175.007812 62.3125 C 174.570312 62 174.011719 61.8125 173.449219 61.8125 L 163.269531 61.875 C 160.710938 61.875 158.152344 61.9375 155.589844 62 C 153.03125 62.0625 150.472656 62.1875 147.847656 62.3125 C 145.351562 62.4375 142.730469 62.5625 140.105469 62.75 C 137.609375 62.9375 135.050781 63.125 132.425781 63.375 L 131.550781 63.4375 C 131.242188 63.4375 130.992188 63.5 130.804688 63.625 C 130.554688 63.75 130.367188 63.875 130.117188 64.0625 L 121.0625 71.742188 L 112.007812 64.0625 C 111.820312 63.875 111.574219 63.75 111.324219 63.625 C 111.074219 63.5625 110.824219 63.5 110.574219 63.4375 L 109.699219 63.375 C 107.078125 63.125 104.515625 62.9375 102.019531 62.75 C 99.398438 62.5625 96.835938 62.4375 94.277344 62.3125 C 91.65625 62.1875 89.09375 62.0625 86.535156 62 C 83.976562 61.9375 81.414062 61.875 78.855469 61.875 L 68.679688 61.8125 C 68.117188 61.8125 67.554688 62 67.117188 62.3125 C 66.679688 62.625 66.367188 63.125 66.179688 63.6875 C 65.992188 64.25 66.054688 64.808594 66.242188 65.308594 C 66.429688 65.808594 66.804688 66.246094 67.304688 66.558594 L 70.863281 68.679688 L 67.617188 69.492188 C 63.621094 70.492188 59.875 72.179688 56.253906 74.238281 C 52.632812 76.359375 49.199219 78.796875 45.824219 81.355469 L 39.269531 86.289062 C 39.082031 86.414062 38.894531 86.601562 38.769531 86.789062 C 38.644531 86.976562 38.519531 87.164062 38.457031 87.414062 L 38.207031 88.097656 L 37.085938 88.347656 C 36.585938 88.472656 36.148438 88.722656 35.835938 89.035156 C 35.523438 89.347656 35.273438 89.785156 35.148438 90.285156 L 34.773438 91.96875 C 34.648438 92.59375 34.460938 93.34375 34.335938 94.15625 C 34.210938 94.90625 34.023438 95.65625 33.898438 96.339844 L 33.835938 96.839844 L 33.464844 97.152344 C 31.339844 99.027344 29.34375 101.023438 27.46875 103.085938 C 25.597656 105.144531 23.785156 107.332031 22.097656 109.640625 C 19.789062 112.761719 17.667969 116.007812 15.667969 119.378906 C 13.671875 122.753906 11.859375 126.25 10.113281 129.746094 L 3.617188 142.980469 C 3.367188 143.542969 3.304688 144.167969 3.429688 144.667969 C 3.554688 145.230469 3.867188 145.730469 4.367188 146.105469 C 4.867188 146.480469 5.429688 146.664062 5.992188 146.601562 C 6.550781 146.601562 7.113281 146.355469 7.550781 145.917969 L 12.171875 141.671875 L 11.796875 145.292969 C 11.671875 146.480469 11.609375 147.601562 11.609375 148.789062 C 11.609375 149.976562 11.609375 151.160156 11.671875 152.410156 L 11.984375 159.839844 C 11.984375 160.339844 12.171875 160.777344 12.359375 161.152344 C 12.609375 161.527344 12.921875 161.839844 13.359375 162.027344 L 14.542969 162.585938 L 13.984375 163.835938 C 12.046875 168.207031 10.421875 172.640625 9.113281 177.199219 C 7.863281 181.691406 6.988281 186.25 6.488281 190.871094 L 5.304688 201.921875 C 5.242188 202.484375 5.367188 203.109375 5.679688 203.546875 C 5.992188 203.984375 6.425781 204.359375 6.988281 204.609375 C 7.550781 204.796875 8.113281 204.796875 8.675781 204.671875 C 9.175781 204.484375 9.675781 204.171875 9.988281 203.671875 L 16.480469 193.992188 L 16.105469 199.113281 C 16.042969 200.050781 15.980469 200.925781 15.980469 201.734375 C 15.980469 202.671875 15.917969 203.546875 15.980469 204.359375 C 16.042969 209.851562 16.855469 215.285156 18.226562 220.53125 C 19.664062 225.960938 21.851562 231.207031 24.535156 236.203125 L 27.21875 241.070312 C 27.46875 241.507812 27.78125 241.820312 28.15625 242.070312 C 28.53125 242.320312 29.03125 242.382812 29.53125 242.382812 C 30.027344 242.382812 30.464844 242.195312 30.839844 241.945312 C 31.214844 241.695312 31.527344 241.320312 31.714844 240.882812 L 35.335938 232.828125 L 35.898438 237.761719 C 35.960938 238.511719 36.085938 239.324219 36.085938 240.136719 C 36.148438 240.945312 36.148438 241.695312 36.085938 242.507812 C 36.023438 244.007812 35.835938 245.503906 35.585938 246.941406 C 35.335938 248.4375 34.960938 250 34.460938 251.5 C 34.023438 252.933594 33.464844 254.433594 32.839844 255.867188 C 32.277344 257.117188 31.652344 258.367188 30.902344 259.492188 L 27.09375 265.171875 C 26.78125 265.609375 26.65625 266.109375 26.65625 266.609375 C 26.65625 267.109375 26.84375 267.605469 27.09375 268.042969 C 27.40625 268.480469 27.78125 268.792969 28.28125 268.980469 C 28.71875 269.167969 29.21875 269.230469 29.777344 269.105469 L 36.460938 267.605469 C 38.144531 267.234375 39.769531 266.734375 41.332031 266.046875 C 42.890625 265.421875 44.328125 264.609375 45.699219 263.734375 L 47.761719 262.425781 L 47.824219 264.859375 C 48.136719 273.664062 50.382812 281.65625 54.441406 288.835938 C 58.5625 296.203125 64.621094 302.699219 72.425781 308.378906 L 78.042969 312.4375 C 78.480469 312.75 78.980469 312.9375 79.480469 312.9375 C 79.980469 312.9375 80.480469 312.8125 80.914062 312.5 C 81.351562 312.1875 81.726562 311.8125 81.914062 311.375 C 82.101562 310.9375 82.164062 310.441406 82.039062 309.878906 L 80.601562 302.386719 L 80.480469 301.761719 L 79.417969 295.328125 L 83.101562 300.949219 C 86.972656 306.878906 91.15625 313.25 90.84375 320.867188 L 90.65625 324.925781 C 90.65625 325.363281 90.71875 325.800781 90.90625 326.113281 C 91.09375 326.484375 91.34375 326.796875 91.71875 327.046875 C 92.09375 327.296875 92.464844 327.484375 92.839844 327.546875 C 93.214844 327.609375 93.652344 327.546875 94.089844 327.421875 L 97.898438 326.050781 C 99.148438 325.613281 100.207031 324.863281 101.144531 323.988281 C 102.082031 323.113281 102.832031 321.992188 103.519531 320.867188 L 104.765625 318.679688 L 105.890625 320.929688 C 106.640625 322.488281 107.515625 323.925781 108.511719 325.425781 C 109.511719 326.921875 110.636719 328.484375 111.882812 330.109375 C 113.195312 331.855469 114.445312 333.480469 115.507812 335.226562 C 116.628906 336.976562 117.566406 338.847656 118.378906 341.035156 C 118.566406 341.597656 119.003906 342.09375 119.503906 342.34375 C 119.875 342.53125 120.3125 342.65625 120.75 342.65625 Z M 121.5 68.121094 L 128.804688 61.9375 C 129.242188 61.5625 129.679688 61.3125 130.179688 61.0625 C 130.679688 60.875 131.179688 60.75 131.738281 60.6875 L 132.613281 60.625 C 135.113281 60.441406 137.734375 60.191406 140.355469 60.003906 C 142.917969 59.816406 145.476562 59.691406 148.160156 59.566406 C 150.722656 59.441406 153.34375 59.316406 155.964844 59.253906 C 158.527344 59.191406 161.148438 59.128906 163.707031 59.128906 L 173.886719 59.066406 C 175.070312 59.066406 176.195312 59.441406 177.132812 60.128906 C 178.007812 60.8125 178.691406 61.75 179.003906 62.9375 C 179.316406 64.125 179.253906 65.308594 178.816406 66.308594 C 178.628906 66.746094 178.441406 67.121094 178.128906 67.496094 C 181.441406 68.554688 184.5625 70.054688 187.621094 71.804688 C 191.367188 73.988281 194.925781 76.546875 198.296875 79.109375 L 204.855469 84.039062 C 205.292969 84.351562 205.601562 84.726562 205.914062 85.101562 C 206.039062 85.289062 206.164062 85.476562 206.289062 85.726562 C 207.226562 85.976562 207.976562 86.414062 208.664062 87.101562 C 209.351562 87.789062 209.847656 88.660156 210.097656 89.722656 L 210.472656 91.410156 C 210.660156 92.28125 210.847656 93.03125 210.972656 93.65625 C 211.097656 94.21875 211.222656 94.84375 211.285156 95.46875 C 213.34375 97.277344 215.28125 99.214844 217.09375 101.273438 C 219.027344 103.398438 220.902344 105.707031 222.585938 108.015625 C 224.960938 111.203125 227.144531 114.574219 229.203125 118.007812 C 231.203125 121.441406 233.074219 124.9375 234.824219 128.558594 L 241.316406 141.796875 C 241.878906 142.917969 242.003906 144.230469 241.691406 145.355469 C 241.441406 146.539062 240.753906 147.601562 239.695312 148.351562 C 238.695312 149.101562 237.445312 149.476562 236.261719 149.414062 C 235.324219 149.351562 234.324219 149.039062 233.511719 148.476562 L 233.511719 148.789062 C 233.511719 150.039062 233.511719 151.347656 233.449219 152.597656 L 233.136719 160.027344 C 233.074219 161.027344 232.828125 161.902344 232.328125 162.710938 C 232.078125 163.148438 231.703125 163.523438 231.328125 163.835938 C 233.136719 167.957031 234.636719 172.203125 235.824219 176.511719 C 237.070312 181.132812 238.007812 185.8125 238.507812 190.621094 L 239.695312 201.671875 C 239.820312 202.921875 239.570312 204.046875 238.945312 205.046875 C 238.320312 206.042969 237.382812 206.792969 236.261719 207.230469 C 235.136719 207.667969 233.886719 207.667969 232.828125 207.292969 C 231.765625 206.917969 230.765625 206.230469 230.078125 205.230469 L 229.140625 203.796875 L 229.140625 204.359375 C 229.078125 210.101562 228.269531 215.722656 226.769531 221.214844 C 225.269531 226.835938 223.023438 232.332031 220.214844 237.511719 L 217.589844 242.382812 C 217.09375 243.257812 216.40625 244.007812 215.59375 244.441406 C 214.78125 244.941406 213.78125 245.128906 212.785156 245.128906 C 211.785156 245.066406 210.785156 244.753906 210.035156 244.253906 C 209.660156 244.007812 209.351562 243.757812 209.101562 243.382812 C 209.164062 244.378906 209.289062 245.441406 209.472656 246.503906 C 209.722656 247.941406 210.097656 249.375 210.472656 250.6875 C 210.847656 251.996094 211.347656 253.371094 211.972656 254.746094 C 212.472656 255.867188 213.035156 256.992188 213.71875 257.929688 L 217.527344 263.613281 C 218.152344 264.546875 218.402344 265.546875 218.402344 266.546875 C 218.402344 267.546875 218.089844 268.605469 217.464844 269.480469 C 216.84375 270.355469 216.03125 271.042969 215.03125 271.417969 C 214.09375 271.789062 213.035156 271.851562 211.910156 271.664062 L 205.230469 270.167969 C 203.355469 269.730469 201.546875 269.167969 199.921875 268.480469 C 198.984375 268.105469 197.984375 267.605469 197.113281 267.109375 C 196.488281 275.472656 194.175781 283.09375 190.304688 290.023438 C 185.9375 297.765625 179.628906 304.570312 171.574219 310.441406 L 165.957031 314.496094 C 165.082031 315.121094 164.082031 315.496094 163.019531 315.496094 C 161.960938 315.558594 160.960938 315.246094 160.023438 314.683594 C 159.085938 314.125 158.402344 313.25 157.964844 312.3125 C 157.527344 311.375 157.402344 310.316406 157.652344 309.191406 L 157.839844 308.316406 C 155.714844 312.1875 154.09375 316.246094 154.28125 320.617188 L 154.46875 324.675781 C 154.53125 325.550781 154.34375 326.421875 153.96875 327.171875 C 153.59375 327.921875 153.03125 328.609375 152.34375 329.109375 C 151.59375 329.609375 150.785156 329.984375 149.972656 330.105469 C 149.160156 330.230469 148.285156 330.105469 147.410156 329.859375 L 143.601562 328.484375 C 141.917969 327.859375 140.542969 326.984375 139.417969 325.863281 C 138.859375 325.300781 138.359375 324.738281 137.859375 324.113281 C 137.359375 325.050781 136.734375 325.925781 136.171875 326.859375 C 135.113281 328.421875 133.988281 330.046875 132.675781 331.667969 C 131.425781 333.355469 130.242188 334.976562 129.179688 336.601562 C 128.179688 338.222656 127.308594 339.910156 126.558594 341.84375 C 126.121094 343.03125 125.246094 344.03125 124.246094 344.59375 C 123.4375 345.03125 122.5625 345.28125 121.625 345.28125 C 120.6875 345.28125 119.75 345.03125 119.003906 344.59375 C 117.941406 343.96875 117.128906 343.03125 116.691406 341.84375 C 115.941406 339.910156 115.070312 338.222656 114.070312 336.601562 C 113.007812 334.976562 111.882812 333.355469 110.574219 331.667969 C 109.324219 329.984375 108.136719 328.421875 107.078125 326.859375 C 106.453125 325.925781 105.890625 325.050781 105.390625 324.113281 C 104.890625 324.738281 104.390625 325.363281 103.832031 325.863281 C 102.644531 326.984375 101.269531 327.921875 99.648438 328.484375 L 95.839844 329.859375 C 94.964844 330.167969 94.152344 330.230469 93.277344 330.105469 C 92.464844 329.984375 91.65625 329.671875 90.90625 329.109375 C 90.15625 328.609375 89.59375 327.921875 89.28125 327.171875 C 88.90625 326.421875 88.71875 325.550781 88.78125 324.675781 L 88.96875 320.617188 C 89.15625 316.246094 87.535156 312.1875 85.410156 308.316406 L 85.597656 309.191406 C 85.785156 310.253906 85.660156 311.3125 85.285156 312.3125 C 84.847656 313.25 84.164062 314.0625 83.226562 314.683594 C 82.289062 315.246094 81.289062 315.558594 80.230469 315.496094 C 79.167969 315.433594 78.167969 315.121094 77.292969 314.496094 L 71.675781 310.441406 C 63.558594 304.570312 57.25 297.765625 52.945312 290.023438 C 49.011719 283.09375 46.699219 275.472656 46.136719 267.109375 C 45.203125 267.605469 44.265625 268.042969 43.328125 268.480469 C 41.640625 269.167969 39.894531 269.730469 38.019531 270.167969 L 31.339844 271.664062 C 30.277344 271.914062 29.21875 271.789062 28.28125 271.417969 C 27.34375 271.042969 26.46875 270.355469 25.847656 269.480469 C 25.222656 268.605469 24.910156 267.546875 24.910156 266.546875 C 24.910156 265.546875 25.222656 264.484375 25.785156 263.613281 L 29.59375 257.929688 C 30.214844 256.992188 30.777344 255.867188 31.339844 254.746094 C 31.964844 253.371094 32.464844 251.996094 32.839844 250.6875 C 33.277344 249.3125 33.589844 247.941406 33.835938 246.503906 C 34.023438 245.441406 34.148438 244.441406 34.210938 243.382812 C 33.898438 243.695312 33.589844 244.007812 33.277344 244.253906 C 32.464844 244.816406 31.527344 245.128906 30.527344 245.128906 C 29.53125 245.191406 28.53125 244.941406 27.71875 244.441406 C 26.90625 243.945312 26.15625 243.257812 25.722656 242.382812 L 23.035156 237.511719 C 20.226562 232.332031 17.980469 226.898438 16.480469 221.214844 C 14.980469 215.722656 14.167969 210.101562 14.109375 204.359375 L 14.109375 203.796875 L 13.171875 205.230469 C 12.484375 206.230469 11.484375 206.980469 10.421875 207.292969 C 9.363281 207.667969 8.113281 207.667969 6.988281 207.230469 C 5.804688 206.792969 4.929688 206.042969 4.304688 205.046875 C 3.679688 204.046875 3.429688 202.921875 3.554688 201.671875 L 4.742188 190.621094 C 5.242188 185.8125 6.179688 181.132812 7.425781 176.511719 C 8.613281 172.203125 10.113281 167.957031 11.921875 163.835938 C 11.546875 163.523438 11.234375 163.148438 10.921875 162.710938 C 10.421875 161.964844 10.113281 161.027344 10.113281 160.027344 L 9.800781 152.597656 C 9.738281 151.285156 9.738281 150.039062 9.738281 148.789062 L 9.738281 148.476562 C 8.925781 149.039062 7.988281 149.351562 6.988281 149.414062 C 5.804688 149.476562 4.554688 149.101562 3.554688 148.351562 C 2.554688 147.601562 1.871094 146.539062 1.558594 145.355469 C 1.308594 144.167969 1.371094 142.917969 1.933594 141.796875 L 8.425781 128.558594 C 10.175781 125 12.046875 121.441406 14.046875 118.007812 C 16.105469 114.574219 18.289062 111.203125 20.664062 108.015625 C 22.410156 105.707031 24.222656 103.460938 26.15625 101.273438 C 27.96875 99.214844 29.964844 97.277344 31.964844 95.46875 C 32.089844 94.84375 32.214844 94.21875 32.277344 93.65625 C 32.402344 93.03125 32.589844 92.21875 32.777344 91.410156 L 33.152344 89.722656 C 33.402344 88.722656 33.835938 87.789062 34.585938 87.101562 C 35.210938 86.476562 36.023438 85.976562 36.960938 85.726562 C 37.085938 85.539062 37.210938 85.351562 37.335938 85.101562 C 37.644531 84.726562 37.957031 84.351562 38.394531 84.039062 L 44.953125 79.109375 C 48.324219 76.546875 51.882812 73.988281 55.628906 71.804688 C 58.625 70.054688 61.808594 68.554688 65.117188 67.496094 C 64.871094 67.121094 64.621094 66.746094 64.433594 66.308594 C 63.996094 65.246094 63.933594 64.0625 64.246094 62.9375 C 64.558594 61.75 65.242188 60.8125 66.117188 60.128906 C 66.992188 59.441406 68.117188 59.066406 69.363281 59.066406 L 79.542969 59.128906 C 82.164062 59.128906 84.722656 59.191406 87.285156 59.253906 C 89.90625 59.316406 92.527344 59.441406 95.089844 59.566406 C 97.710938 59.691406 100.332031 59.816406 102.894531 60.003906 C 105.578125 60.191406 108.136719 60.378906 110.636719 60.625 L 111.511719 60.6875 C 112.070312 60.75 112.570312 60.875 113.070312 61.0625 C 113.570312 61.25 114.007812 61.5625 114.445312 61.9375 L 121.75 68.121094 Z M 162.460938 215.222656 C 165.707031 211.101562 169.203125 207.417969 172.824219 204.171875 C 177.695312 199.800781 182.75 196.242188 187.683594 193.554688 C 184.5 186.125 180.816406 179.007812 177.757812 173.390625 C 177.070312 172.140625 175.820312 171.390625 174.382812 171.390625 C 172.949219 171.390625 171.699219 172.078125 170.949219 173.328125 C 170.761719 173.640625 170.574219 173.949219 170.386719 174.261719 C 167.140625 179.507812 163.144531 184.253906 160.023438 187 L 159.273438 187.6875 L 158.214844 187.6875 C 155.464844 187.6875 152.46875 187.25 149.535156 186.625 C 156.214844 195.054688 160.148438 205.667969 162.519531 215.285156 Z M 141.855469 178.945312 C 142.855469 179.195312 143.101562 179.257812 143.351562 179.320312 C 147.472656 180.445312 152.71875 181.816406 157.152344 182.066406 C 159.773438 179.570312 163.019531 175.699219 165.644531 171.328125 C 167.328125 168.519531 168.828125 165.585938 169.765625 162.835938 C 162.519531 162.773438 157.527344 166.832031 152.34375 171.015625 C 148.972656 173.765625 145.539062 176.511719 141.355469 178.570312 C 141.480469 178.695312 141.667969 178.820312 141.792969 178.945312 Z M 210.972656 127.058594 C 210.972656 127.058594 206.664062 124.5 203.042969 122.816406 C 202.230469 124.4375 201.296875 126.125 200.171875 127.746094 C 211.285156 132.304688 217.714844 138.363281 222.273438 143.792969 C 221.148438 137.300781 218.339844 132.742188 215.34375 127.871094 L 211.347656 121.316406 L 217.714844 122.753906 C 218.339844 122.878906 219.027344 123.0625 219.839844 123.375 C 217.902344 120.128906 215.96875 117.132812 213.96875 114.449219 C 211.660156 111.328125 209.289062 108.578125 206.851562 106.144531 C 206.851562 106.894531 206.789062 107.640625 206.726562 108.390625 C 206.539062 111.511719 205.914062 114.886719 204.792969 118.320312 C 208.164062 121.503906 209.039062 123.3125 210.972656 127.058594 Z M 180.878906 114.261719 C 183.4375 113.574219 187.371094 112.636719 189.558594 112.511719 C 185.25 110.328125 185.25 110.328125 185.25 110.328125 C 185.25 110.328125 192.617188 104.082031 195.738281 104.332031 C 194.863281 106.457031 194.550781 108.453125 195.675781 109.953125 C 198.296875 113.386719 196.363281 120.378906 195.238281 125.0625 C 199.296875 119.316406 200.796875 113.324219 201.171875 108.015625 C 201.546875 103.023438 200.859375 98.589844 200.234375 95.53125 C 188.183594 93.90625 174.507812 103.335938 169.328125 107.269531 C 172.886719 109.203125 176.757812 111.511719 180.816406 114.199219 Z M 121.5 223.402344 L 130.054688 217.09375 L 121.5 219.53125 L 112.945312 217.09375 Z M 121.5 282.46875 L 139.292969 275.910156 C 139.917969 274.851562 141.542969 272.226562 145.476562 265.359375 C 137.171875 256.679688 127.308594 253.308594 121.5 252.058594 C 115.691406 253.308594 105.765625 256.679688 97.523438 265.359375 C 101.457031 272.226562 103.082031 274.851562 103.707031 275.910156 Z M 121.5 312.125 L 124.183594 323.988281 C 124.871094 322.179688 125.433594 319.742188 125.371094 316.746094 C 125.371094 316.746094 126.183594 319.054688 126.496094 321.679688 C 129.617188 317.121094 132.175781 311.75 132.363281 302.136719 L 132.488281 295.390625 L 137.109375 300.324219 C 139.167969 302.511719 140.667969 305.257812 141.855469 308.003906 C 142.730469 302.820312 144.914062 299.636719 144.914062 299.574219 C 144.976562 301.261719 144.351562 303.820312 145.351562 309.191406 C 147.160156 304.445312 149.910156 300.261719 152.53125 296.265625 C 156.027344 290.898438 159.398438 285.777344 159.523438 280.40625 L 159.835938 268.605469 L 164.769531 279.34375 C 167.265625 284.777344 168.890625 288.523438 169.640625 292.207031 C 169.703125 292.394531 169.703125 292.644531 169.765625 292.832031 C 173.074219 285.652344 174.320312 279.285156 174.320312 279.222656 C 176.195312 282.96875 175.507812 288.710938 174.074219 293.769531 C 190.617188 275.785156 186.183594 255.558594 184.1875 246.441406 L 181.253906 233.265625 L 189.121094 244.253906 C 191.179688 247.128906 193.054688 249.625 194.925781 251.75 C 192.429688 244.628906 192.679688 236.699219 192.679688 236.636719 C 193.925781 240.074219 195.425781 245.941406 199.234375 251.0625 C 198.609375 248.4375 198.171875 245.628906 198.046875 242.820312 C 197.859375 238.136719 198.671875 234.015625 199.484375 229.894531 C 201.296875 220.65625 202.980469 211.726562 190.367188 198.113281 C 185.6875 200.613281 180.878906 204.046875 176.257812 208.167969 C 174.695312 209.539062 173.199219 211.039062 171.699219 212.601562 C 174.695312 218.65625 178.378906 237.386719 178.191406 245.066406 C 175.257812 238.824219 171.324219 233.328125 167.890625 229.269531 C 173.261719 244.070312 178.132812 270.167969 173.886719 275.226562 C 171.386719 257.492188 166.640625 247.941406 164.082031 243.757812 L 157.589844 249.3125 C 158.339844 253.058594 159.273438 260.425781 157.214844 268.042969 C 156.089844 262.300781 156.339844 259.617188 153.09375 253.058594 L 151.21875 254.683594 C 151.65625 272.976562 152.65625 274.101562 144.351562 292.644531 C 144.976562 286.527344 145.351562 281.03125 145.539062 275.597656 C 143.351562 279.285156 143.039062 279.65625 143.039062 279.65625 L 142.542969 280.34375 C 141.417969 281.96875 136.796875 291.519531 133.863281 293.894531 C 132.613281 287.335938 129.804688 286.089844 128.242188 285.964844 C 127.867188 290.273438 125.496094 295.765625 123.933594 298.078125 C 122.1875 300.636719 121.1875 306.507812 121.1875 306.507812 C 121.1875 306.507812 120.1875 300.636719 118.441406 298.078125 C 116.941406 295.828125 114.507812 290.273438 114.132812 285.964844 C 112.570312 286.152344 109.699219 287.398438 108.511719 293.894531 C 105.578125 291.457031 100.957031 281.96875 99.835938 280.34375 L 99.335938 279.65625 C 99.335938 279.65625 99.023438 279.222656 96.835938 275.597656 C 97.023438 281.03125 97.398438 286.527344 98.023438 292.644531 C 89.71875 274.101562 90.78125 272.976562 91.15625 254.683594 L 89.28125 253.058594 C 86.097656 259.554688 86.285156 262.238281 85.160156 268.042969 C 83.164062 260.363281 84.101562 253.058594 84.785156 249.3125 L 78.292969 243.757812 C 75.734375 247.941406 71.050781 257.492188 68.492188 275.226562 C 64.183594 270.167969 69.113281 244.070312 74.484375 229.269531 C 71.050781 233.328125 67.117188 238.824219 64.183594 245.066406 C 63.996094 237.386719 67.679688 218.71875 70.675781 212.601562 C 69.175781 211.039062 67.679688 209.601562 66.117188 208.167969 C 61.496094 204.046875 56.691406 200.613281 52.007812 198.113281 C 39.394531 211.726562 41.082031 220.65625 42.890625 229.894531 C 43.703125 233.953125 44.453125 238.074219 44.328125 242.820312 C 44.203125 245.628906 43.765625 248.4375 43.140625 251.0625 C 46.949219 245.941406 48.449219 240.074219 49.695312 236.636719 C 49.695312 236.699219 49.945312 244.628906 47.449219 251.75 C 49.320312 249.625 51.257812 247.128906 53.253906 244.253906 L 61.121094 233.265625 L 58.1875 246.441406 C 56.191406 255.558594 51.757812 275.785156 68.304688 293.769531 C 66.929688 288.710938 66.179688 282.96875 68.054688 279.222656 C 68.054688 279.222656 69.300781 285.589844 72.613281 292.832031 C 72.675781 292.644531 72.675781 292.394531 72.734375 292.207031 C 73.484375 288.523438 75.109375 284.777344 77.605469 279.34375 L 82.539062 268.605469 L 82.851562 280.40625 C 82.976562 285.777344 86.347656 290.898438 89.84375 296.265625 C 92.464844 300.324219 95.214844 304.507812 97.023438 309.191406 C 98.023438 303.820312 97.460938 301.261719 97.460938 299.574219 C 97.460938 299.574219 99.710938 302.820312 100.519531 308.003906 C 101.769531 305.257812 103.207031 302.511719 105.265625 300.324219 L 109.886719 295.390625 L 110.011719 302.136719 C 110.199219 311.75 112.757812 317.121094 115.878906 321.679688 C 116.191406 319.054688 117.003906 316.746094 117.003906 316.746094 C 116.941406 319.742188 117.566406 322.179688 118.191406 323.988281 L 120.875 312.125 Z M 121.5 75.050781 L 132.238281 65.996094 L 133.113281 65.933594 C 138.109375 65.496094 143.226562 65.121094 148.472656 64.871094 C 153.53125 64.621094 158.648438 64.496094 163.832031 64.4375 L 174.011719 64.375 L 162.707031 71.054688 C 166.394531 70.867188 169.703125 70.929688 172.949219 71.617188 C 179.566406 72.925781 185.875 76.296875 195.175781 83.355469 L 201.730469 88.285156 L 193.554688 88.285156 C 192.929688 88.285156 192.242188 88.285156 191.492188 88.285156 C 192.554688 88.847656 193.617188 89.410156 194.613281 89.972656 C 197.488281 89.660156 200.421875 89.785156 203.230469 90.410156 L 204.917969 90.785156 L 205.292969 92.46875 C 205.601562 93.90625 206.039062 95.839844 206.351562 98.089844 C 210.597656 101.710938 214.53125 105.894531 218.339844 111.078125 C 222.398438 116.507812 226.269531 122.941406 230.078125 130.746094 L 236.574219 143.980469 L 225.769531 133.992188 C 225.394531 133.617188 225.023438 133.304688 224.648438 132.992188 C 227.019531 138.050781 228.582031 143.855469 228.269531 152.285156 L 227.957031 159.714844 L 223.335938 153.910156 C 222.898438 153.347656 222.273438 152.535156 221.648438 151.722656 C 218.714844 147.914062 215.21875 143.355469 209.472656 139.109375 C 215.46875 146.105469 220.902344 154.035156 225.144531 162.773438 C 229.265625 171.390625 232.265625 180.882812 233.386719 191.121094 L 234.574219 202.171875 L 228.332031 192.933594 C 226.457031 190.183594 221.898438 185.503906 216.46875 180.820312 C 221.273438 187.5 222.273438 190.496094 222.460938 191.058594 C 222.460938 191.121094 228.644531 211.101562 215.65625 234.890625 L 212.972656 239.761719 L 210.722656 234.703125 C 209.722656 232.515625 209.101562 230.519531 208.539062 228.644531 C 207.914062 226.710938 207.351562 224.835938 206.289062 222.964844 C 206.039062 225.648438 205.539062 228.273438 205.042969 230.894531 C 204.292969 234.703125 203.542969 238.511719 203.730469 242.570312 C 203.855469 245.941406 204.480469 249.1875 205.417969 252.183594 C 206.539062 255.808594 207.976562 258.867188 209.289062 260.800781 L 213.097656 266.484375 L 206.414062 264.984375 C 201.730469 263.921875 197.921875 261.863281 194.425781 258.742188 C 193.429688 257.867188 192.492188 256.929688 191.554688 255.929688 C 193.054688 269.605469 191.054688 289.585938 168.328125 306.070312 L 162.707031 310.128906 L 164.019531 303.320312 C 164.832031 299.136719 164.894531 296.203125 164.269531 293.144531 C 164.019531 291.832031 163.582031 290.460938 163.019531 288.960938 C 161.523438 292.457031 159.398438 295.703125 157.152344 299.136719 C 152.96875 305.570312 148.535156 312.375 148.847656 320.742188 L 149.035156 324.800781 L 145.226562 323.425781 C 141.855469 322.179688 140.230469 318.246094 138.421875 313.6875 C 137.984375 312.625 137.546875 311.5625 137.109375 310.503906 C 135.546875 318.867188 131.988281 323.550781 128.367188 328.359375 C 125.871094 331.667969 123.3125 335.039062 121.5 339.910156 C 119.6875 335.039062 117.128906 331.667969 114.632812 328.359375 C 111.011719 323.550781 107.453125 318.867188 105.890625 310.503906 C 105.390625 311.5625 105.015625 312.625 104.578125 313.6875 C 102.769531 318.246094 101.144531 322.179688 97.710938 323.425781 L 93.902344 324.800781 L 94.089844 320.742188 C 94.402344 312.375 89.96875 305.570312 85.785156 299.136719 C 83.601562 295.765625 81.414062 292.457031 79.917969 288.960938 C 79.355469 290.460938 78.917969 291.832031 78.667969 293.144531 C 78.042969 296.203125 78.105469 299.136719 78.917969 303.320312 L 80.230469 310.128906 L 74.609375 306.070312 C 51.882812 289.523438 49.945312 269.605469 51.382812 255.929688 C 50.445312 256.929688 49.507812 257.867188 48.511719 258.742188 C 45.015625 261.800781 41.269531 263.921875 36.523438 264.984375 L 29.839844 266.484375 L 33.648438 260.800781 C 34.960938 258.804688 36.398438 255.746094 37.519531 252.183594 C 38.394531 249.25 39.082031 245.941406 39.207031 242.570312 C 39.332031 238.511719 38.644531 234.703125 37.894531 230.894531 C 37.398438 228.273438 36.898438 225.648438 36.648438 222.964844 C 35.585938 224.835938 35.023438 226.710938 34.398438 228.644531 C 33.835938 230.519531 33.214844 232.453125 32.214844 234.703125 L 29.964844 239.761719 L 27.34375 234.890625 C 14.355469 211.101562 20.539062 191.121094 20.539062 191.058594 C 20.726562 190.496094 21.726562 187.5 26.53125 180.820312 C 21.039062 185.503906 16.480469 190.183594 14.667969 192.933594 L 8.425781 202.171875 L 9.613281 191.121094 C 10.734375 180.820312 13.671875 171.390625 17.792969 162.773438 C 21.972656 154.035156 27.46875 146.105469 33.464844 139.109375 C 27.78125 143.355469 24.222656 147.914062 21.289062 151.722656 C 20.664062 152.535156 20.039062 153.347656 19.601562 153.910156 L 14.980469 159.714844 L 14.667969 152.285156 C 14.355469 143.855469 15.917969 138.050781 18.289062 132.992188 C 17.917969 133.304688 17.542969 133.617188 17.167969 133.992188 L 6.363281 143.980469 L 12.859375 130.746094 C 16.667969 122.941406 20.539062 116.445312 24.597656 111.078125 C 28.40625 105.957031 32.402344 101.710938 36.648438 98.089844 C 36.960938 95.777344 37.398438 93.90625 37.707031 92.46875 L 38.082031 90.785156 L 39.769531 90.410156 C 42.578125 89.785156 45.511719 89.660156 48.386719 89.972656 C 49.382812 89.410156 50.445312 88.847656 51.507812 88.285156 C 50.757812 88.285156 50.070312 88.285156 49.445312 88.285156 L 41.269531 88.285156 L 47.824219 83.355469 C 57.125 76.296875 63.433594 72.925781 70.050781 71.617188 C 73.359375 70.992188 76.605469 70.867188 80.292969 71.054688 L 68.988281 64.375 L 79.167969 64.4375 C 84.351562 64.496094 89.46875 64.621094 94.527344 64.871094 C 99.773438 65.121094 104.890625 65.496094 109.886719 65.933594 L 110.761719 65.996094 Z M 152.03125 99.089844 C 152.09375 99.089844 156.839844 100.835938 164.082031 104.457031 C 166.019531 102.835938 175.257812 95.46875 186.183594 91.84375 L 185.933594 91.722656 C 183.5625 90.597656 181.128906 89.597656 178.691406 88.597656 L 166.828125 83.855469 L 179.566406 83.292969 L 185.25 83.042969 C 180.066406 79.671875 175.945312 77.796875 171.886719 76.984375 C 166.144531 75.863281 160.023438 76.609375 150.597656 77.921875 L 137.109375 79.734375 L 153.34375 70.117188 C 151.78125 70.179688 150.222656 70.242188 148.660156 70.304688 C 144.039062 70.554688 139.230469 70.867188 134.363281 71.242188 L 121.5 82.105469 L 108.636719 71.242188 C 103.769531 70.804688 99.023438 70.492188 94.339844 70.304688 C 92.777344 70.242188 91.21875 70.179688 89.65625 70.117188 L 105.890625 79.734375 L 92.402344 77.921875 C 83.039062 76.671875 76.855469 75.863281 71.113281 76.984375 C 66.992188 77.796875 62.933594 79.609375 57.75 83.042969 L 63.433594 83.292969 L 76.171875 83.855469 L 64.308594 88.597656 C 61.808594 89.597656 59.4375 90.597656 57.0625 91.722656 L 56.816406 91.84375 C 67.742188 95.46875 76.980469 102.835938 78.917969 104.457031 C 86.160156 100.835938 90.96875 99.089844 90.96875 99.089844 C 86.222656 101.773438 81.164062 104.957031 75.984375 108.640625 L 75.671875 109.015625 L 75.609375 108.953125 C 54.941406 123.5625 32.589844 144.855469 22.785156 165.273438 C 21.351562 168.207031 20.101562 171.265625 19.039062 174.386719 C 23.785156 167.332031 30.214844 159.902344 36.523438 158.03125 C 33.898438 160.152344 28.03125 168.144531 23.160156 176.574219 L 23.535156 176.261719 C 28.59375 172.015625 34.273438 167.894531 39.519531 165.210938 L 52.445312 158.527344 L 42.828125 169.457031 C 27.03125 187.4375 25.84375 192.621094 25.84375 192.621094 L 25.84375 192.746094 C 25.84375 192.808594 22.785156 202.671875 26.09375 216.660156 C 28.28125 208.605469 32.464844 198.800781 37.769531 194.429688 C 37.769531 194.492188 32.339844 208.230469 31.527344 220.964844 C 32.652344 218.78125 34.335938 216.472656 37.085938 213.972656 C 38.332031 207.980469 41.765625 201.296875 49.570312 193.246094 C 53.691406 183.253906 58.75 173.765625 62.496094 167.269531 C 62.183594 166.769531 61.871094 166.269531 61.558594 165.773438 C 56.941406 169.832031 49.074219 177.449219 45.949219 184.691406 C 44.515625 176.511719 51.257812 164.148438 56.566406 158.402344 C 54.253906 155.21875 51.757812 152.097656 49.199219 149.101562 C 46.199219 149.789062 42.703125 151.472656 40.707031 155.28125 C 41.144531 148.289062 54.628906 134.429688 58.375 133.117188 L 58.75 132.742188 C 66.054688 125.875 88.78125 115.011719 102.457031 113.386719 C 78.480469 122.191406 65.117188 134.492188 62.933594 136.425781 L 56.753906 149.789062 C 57.6875 151.035156 59.625 153.660156 63.683594 159.027344 C 78.292969 153.972656 85.972656 160.214844 94.089844 166.769531 C 98.335938 170.203125 102.769531 173.765625 108.324219 175.324219 L 114.882812 177.136719 L 108.886719 180.382812 C 91.03125 190.121094 85.347656 214.410156 83.539062 229.207031 L 92.839844 228.398438 L 83.039062 234.265625 C 82.851562 236.511719 82.789062 238.261719 82.726562 239.511719 L 95.527344 233.328125 L 87.160156 243.882812 L 90.09375 246.378906 L 98.960938 238.199219 L 94.277344 249.9375 L 94.839844 250.375 L 115.816406 243.195312 L 116.628906 234.703125 L 97.960938 219.65625 L 101.457031 213.847656 L 109.761719 196.429688 L 109.074219 210.226562 L 121.5 213.785156 L 133.925781 210.226562 L 133.238281 196.429688 L 141.542969 213.847656 L 145.039062 219.65625 L 126.371094 234.703125 L 127.183594 243.195312 L 148.160156 250.375 L 148.722656 249.9375 L 144.039062 238.199219 L 152.90625 246.378906 L 155.839844 243.882812 L 147.472656 233.328125 L 160.273438 239.511719 C 160.210938 238.261719 160.148438 236.511719 159.960938 234.265625 L 150.160156 228.398438 L 159.460938 229.207031 C 157.652344 214.410156 151.96875 190.121094 134.113281 180.382812 L 128.117188 177.136719 L 134.675781 175.324219 C 140.292969 173.765625 144.664062 170.203125 148.910156 166.769531 C 157.027344 160.214844 164.707031 153.972656 179.316406 159.027344 C 183.375 153.660156 185.3125 151.035156 186.246094 149.789062 L 180.066406 136.425781 C 177.882812 134.492188 164.457031 122.191406 140.542969 113.386719 C 154.15625 115.011719 176.945312 125.9375 184.25 132.742188 L 184.625 133.117188 C 188.433594 134.429688 201.917969 148.289062 202.292969 155.28125 C 200.296875 151.472656 196.800781 149.789062 193.800781 149.101562 C 191.242188 152.097656 188.808594 155.21875 186.433594 158.402344 C 191.742188 164.148438 198.484375 176.511719 197.050781 184.691406 C 193.988281 177.449219 186.058594 169.832031 181.441406 165.773438 C 181.128906 166.269531 180.816406 166.769531 180.503906 167.269531 C 184.1875 173.765625 189.308594 183.316406 193.429688 193.246094 C 201.234375 201.296875 204.667969 207.980469 205.914062 213.972656 C 208.664062 216.472656 210.285156 218.71875 211.472656 220.964844 C 210.660156 208.230469 205.292969 194.492188 205.230469 194.429688 C 210.472656 198.800781 214.71875 208.605469 216.90625 216.660156 C 220.214844 202.671875 217.15625 192.808594 217.15625 192.746094 L 217.15625 192.621094 C 217.15625 192.621094 215.90625 187.375 200.171875 169.457031 L 190.554688 158.527344 L 203.480469 165.210938 C 208.664062 167.894531 214.40625 172.015625 219.464844 176.261719 L 219.839844 176.574219 C 214.96875 168.144531 209.164062 160.214844 206.476562 158.03125 C 212.785156 159.839844 219.214844 167.332031 223.960938 174.386719 C 222.898438 171.265625 221.585938 168.207031 220.214844 165.273438 C 210.410156 144.855469 188.058594 123.5625 167.390625 108.953125 L 167.328125 109.015625 L 167.015625 108.640625 C 161.835938 105.019531 156.777344 101.773438 152.03125 99.089844 Z M 121.5 359.515625 L 129.242188 367.257812 L 121.5 375 L 113.757812 367.257812 Z M 137.421875 343.59375 L 145.164062 351.335938 L 137.421875 359.078125 L 129.679688 351.335938 Z M 121.5 0.0625 C 122.0625 0.0625 122.625 0.4375 122.8125 1 L 131.363281 26.347656 L 146.726562 13.796875 C 147.285156 13.300781 148.160156 13.425781 148.660156 13.984375 C 148.972656 14.359375 149.035156 14.859375 148.910156 15.296875 L 141.417969 39.085938 L 156.214844 34.964844 C 156.964844 34.777344 157.714844 35.214844 157.902344 35.902344 C 158.027344 36.339844 157.902344 36.839844 157.652344 37.148438 L 144.914062 52.324219 C 144.664062 52.636719 144.226562 52.820312 143.851562 52.820312 L 99.273438 52.820312 C 98.898438 52.820312 98.460938 52.636719 98.210938 52.324219 L 85.472656 37.148438 C 85.160156 36.839844 85.097656 36.339844 85.222656 35.902344 C 85.410156 35.152344 86.160156 34.714844 86.910156 34.964844 L 101.707031 39.085938 L 94.214844 15.296875 C 94.089844 14.859375 94.152344 14.359375 94.464844 13.984375 C 94.964844 13.425781 95.839844 13.300781 96.398438 13.796875 L 111.757812 26.347656 L 120.3125 1 C 120.5 0.4375 121.0625 0.0625 121.625 0.0625 Z M 121.5 0.0625" fill-rule="evenodd"/></g></g></g></svg>