<svg id="Layer_1" data-name="Layer 1" xmlns="http://www.w3.org/2000/svg" viewBox="0 0 804.43 302.49"><defs><style>.cls-1{opacity:0.44;}.cls-2{fill:#c89a40;}</style></defs><g class="cls-1"><path class="cls-2" d="M54.12,54.24,66,20h3V18.41H59.26V20H64L54.66,48.15,45,20h4.84V18.41H39.62l4,11.47L37.4,48,27.31,20h4.84V18.41H19V20h3.51l11,30.7c.79,2.28,1.51,3.53,2.14,3.75a2.28,2.28,0,0,0,.72.13h.49l7.76-21.93,6.39,18c.71,2,1.29,3.17,1.72,3.41a2,2,0,0,0,.91.17Z"/></g><g class="cls-1"><path class="cls-2" d="M127.19,54.24c0-.88-.32-1.38-1-1.5a4,4,0,0,0-.6-.05h-2L109.93,18.41h-2.21L94.35,52.69H90.58v1.55h10.63q0-1.32-1-1.5a3.92,3.92,0,0,0-.59-.05H96.74l4.47-11.59h12.48l4.49,11.59h-3.89v1.55ZM113,39.36H101.86l5.57-14.45Z"/></g><g class="cls-1"><path class="cls-2" d="M177.39,54.24l.29-11.94H176.5l-1,4q-1.44,5.49-4.78,6.27a8.4,8.4,0,0,1-1.38.12h-8.18V20h5V18.41H151.23V20H156V52.69h-4.78v1.55Z"/></g><g class="cls-1"><path class="cls-2" d="M228.48,54.24l.3-11.94h-1.19l-1,4q-1.44,5.49-4.78,6.27a8.37,8.37,0,0,1-1.37.12h-8.19V20h5V18.41H202.32V20h4.78V52.69h-4.78v1.55Z"/></g><g class="cls-1"><path class="cls-2" d="M305.52,17.8A17.66,17.66,0,0,0,287.6,36.08q0,9.68,6.63,14.94a17.45,17.45,0,0,0,11.11,3.81,17.07,17.07,0,0,0,12.12-4.78,18,18,0,0,0,5.67-13.73q0-9.84-6.86-15A17.3,17.3,0,0,0,305.52,17.8Zm0,35.36q-8.65,0-11.11-9.25a30.79,30.79,0,0,1-.84-7.59q0-14.2,8.61-16.49a13.9,13.9,0,0,1,3.16-.36q11.76.13,11.82,16.61,0,13-7.21,16.19A11,11,0,0,1,305.52,53.16Z"/></g><g class="cls-1"><path class="cls-2" d="M367.54,54.24V52.69h-7.17V36.61h12.31V34.9H360.37V20h9.56q4.31,0,6.16,5.8c.07.24.13.43.17.59l.84,2.81h1.19L378,18.41H350.46V20h4.78V52.69h-4.78v1.55Z"/></g><g class="cls-1"><path class="cls-2" d="M50.94,130.87,71.76,72.34h5.07V69.72h-17v2.62h8.08L51,120.06,32.73,72.34h8.1V69.72H18v2.62H24l19.21,51.07c1.49,4,2.77,6.26,3.84,6.87a5.23,5.23,0,0,0,2.63.59Z"/></g><g class="cls-1"><path class="cls-2" d="M175.45,130.37c0-1.47-.54-2.32-1.62-2.53a5.77,5.77,0,0,0-1-.09h-3.43l-23.14-58h-3.75l-22.64,58h-6.38v2.62h18c0-1.47-.54-2.32-1.62-2.53a5.72,5.72,0,0,0-1-.09h-5l7.59-19.63H152.6l7.57,19.63h-6.56v2.62Zm-24-25.17H132.58L142,80.73Z"/></g><g class="cls-1"><path class="cls-2" d="M291.07,69.72H274.88l-21.83,49.44L229.58,69.72H215.13v2.62h8.09v55.41h-8.09v2.62h20.22c0-1.47-.54-2.32-1.61-2.53a6,6,0,0,0-1-.09h-5.45V84.26l22.14,46.61h2.13l23.34-52.06v48.94H266.8v2.62h24.27c0-1.47-.55-2.32-1.63-2.53a5.66,5.66,0,0,0-1-.09H283V72.34h8.1Z"/></g><g class="cls-1"><path class="cls-2" d="M381.9,87.91l-.5-18.19H334.79v2.62h8.08v55.41h-8.08v2.62H381.4l.5-18.2h-2l-1.42,4.75q-2.54,8.6-7.48,10.31a9.87,9.87,0,0,1-3.24.52H351.57v-27.2H372.4V97.61H351.57V72.34h16.17q7.27,0,10.42,9.8a10,10,0,0,1,.3,1l1.42,4.75Z"/></g><g class="cls-1"><path class="cls-2" d="M456.36,204.21l11.82-34.28h3v-1.55H461.5v1.55h4.78l-9.38,28.19-9.62-28.19h4.84v-1.55H441.86l4,11.47L439.64,198l-10.1-28.06h4.85v-1.55H421.25v1.55h3.51l11,30.7c.79,2.27,1.51,3.52,2.14,3.75a2.28,2.28,0,0,0,.72.13h.49l7.76-21.93,6.39,18c.71,2,1.28,3.17,1.72,3.41a2.17,2.17,0,0,0,.91.17Z"/></g><g class="cls-1"><path class="cls-2" d="M529.43,204.21c0-.88-.32-1.38-.95-1.5a4,4,0,0,0-.6-.05h-2l-13.69-34.28H510l-13.37,34.28h-3.77v1.55h10.62c0-.88-.32-1.38-.95-1.5a4,4,0,0,0-.59-.05H499l4.46-11.59h12.49l4.48,11.59h-3.89v1.55Zm-14.16-14.88H504.1l5.56-14.45Z"/></g><g class="cls-1"><path class="cls-2" d="M579.62,204.21l.3-11.94h-1.19l-1,4c-1,3.66-2.56,5.75-4.78,6.27a8.4,8.4,0,0,1-1.38.12h-8.19V169.93h5v-1.55H553.47v1.55h4.78v32.73h-4.78v1.55Z"/></g><g class="cls-1"><path class="cls-2" d="M630.72,204.21l.29-11.94h-1.18l-1,4q-1.44,5.49-4.78,6.27a8.4,8.4,0,0,1-1.38.12h-8.18V169.93h5v-1.55H604.56v1.55h4.78v32.73h-4.78v1.55Z"/></g><g class="cls-1"><path class="cls-2" d="M707.76,167.77a17.66,17.66,0,0,0-17.92,18.28q0,9.67,6.63,14.94a17.42,17.42,0,0,0,11.1,3.81A17.08,17.08,0,0,0,719.7,200a18,18,0,0,0,5.67-13.73q0-9.85-6.86-15A17.33,17.33,0,0,0,707.76,167.77Zm0,35.36q-8.65,0-11.11-9.25a30.79,30.79,0,0,1-.84-7.59q0-14.21,8.61-16.49a13.33,13.33,0,0,1,3.15-.36q11.77.13,11.83,16.61,0,13-7.22,16.19A10.91,10.91,0,0,1,707.76,203.13Z"/></g><g class="cls-1"><path class="cls-2" d="M769.78,204.21v-1.55h-7.17V186.58h12.31v-1.71H762.61V169.93h9.56q4.29,0,6.16,5.79c.07.25.13.44.17.6l.84,2.81h1.19l-.3-10.75H752.7v1.55h4.78v32.73H752.7v1.55Z"/></g><g class="cls-1"><path class="cls-2" d="M453.17,280.84,474,222.31h5.06v-2.62h-17v2.62h8.08L453.28,270,435,222.31h8.09v-2.62H420.22v2.62h6.06l19.21,51.06c1.48,4,2.77,6.27,3.84,6.88a5.21,5.21,0,0,0,2.62.59Z"/></g><g class="cls-1"><path class="cls-2" d="M577.69,280.34c0-1.47-.54-2.32-1.62-2.53a5.77,5.77,0,0,0-1-.09h-3.44l-23.14-58h-3.75l-22.64,58h-6.37v2.62h18c0-1.47-.55-2.32-1.63-2.53a5.63,5.63,0,0,0-1-.09h-5l7.6-19.63h21.12l7.58,19.63h-6.56v2.62Zm-24-25.17h-18.9l9.4-24.47Z"/></g><g class="cls-1"><path class="cls-2" d="M693.3,219.69H677.12l-21.83,49.43-23.47-49.43H617.37v2.62h8.09v55.41h-8.09v2.62h20.22c0-1.47-.54-2.32-1.61-2.53a6,6,0,0,0-1-.09h-5.45V234.23l22.14,46.61h2.12l23.35-52.06v48.94H669v2.62H693.3c0-1.47-.54-2.32-1.62-2.53a5.77,5.77,0,0,0-1-.09h-5.45V222.31h8.09Z"/></g><g class="cls-1"><path class="cls-2" d="M784.14,237.87l-.5-18.18H737v2.62h8.07v55.41H737v2.62h46.61l.5-18.2h-2l-1.42,4.75q-2.54,8.6-7.49,10.31a9.81,9.81,0,0,1-3.23.52H753.81v-27.2h20.83v-2.94H753.81V222.31H770q7.28,0,10.42,9.8c.13.41.24.75.3,1l1.42,4.75Z"/></g></svg>